<svg xmlns="http://www.w3.org/2000/svg" viewBox="0 0 1440 320"><path fill="#6C63FF" fill-opacity="1" d="M0,224L30,208C60,192,120,160,180,165.3C240,171,300,213,360,197.3C420,181,480,107,540,85.3C600,64,660,96,720,133.3C780,171,840,213,900,245.3C960,277,1020,299,1080,256C1140,213,1200,107,1260,64C1320,21,1380,43,1410,53.3L1440,64L1440,320L1410,320C1380,320,1320,320,1260,320C1200,320,1140,320,1080,320C1020,320,960,320,900,320C840,320,780,320,720,320C660,320,600,320,540,320C480,320,420,320,360,320C300,320,240,320,180,320C120,320,60,320,30,320L0,320Z"></path></svg>